<?xml version="1.0"?><svg width="542.934" height="289.328" xmlns="http://www.w3.org/2000/svg">
 <title>Black octopus blackgound</title>

 <g>
  <title>Layer 1</title>
  <g id="Layer_1">
   <path fill="#44058E" fill-rule="evenodd" id="path7" d="m519.937988,228.498993c-10.472992,2.792007 -17.316986,-3.888 -21.403992,-11.761993c-0.36499,-1.856995 -0.92099,-3.854996 -1.699005,-4.656006c0.141022,-0.192993 0.376007,-0.435989 0.611023,-0.677994c-2.414001,-4.647995 6.03598,-17.589996 8.93399,-21.744995c-0.739014,-1.423004 -3.68399,-0.375 -3.970001,-0.223999c-15.675018,31.023987 -39.55899,28.86499 -67.740997,23.998001c-6.944,-3.861008 -30.729004,-8.843002 -33.391998,-13.963013c-14.557007,-10.863998 -23.14502,-19.046997 -33.748016,-30.87999c-0.429993,0.10199 -0.80899,0.300003 -1.095001,0.44899c-0.916992,2.403 -1.496002,8.243011 -2.712982,9.840012c-4.420013,13.977997 -31.979004,9.148987 -41.303009,18.327988c-7.811005,4.901001 -14.187988,6.531006 -21.134003,2.671005c-3.166992,2.249008 -6.098999,7.266006 -8.212982,9.688004c-10.667023,14.938004 -23.593018,28.998001 -37.32402,40.349991c-28.597992,20.762009 -72.547989,49.983017 -108.737,37.354019c-7.024002,0.154999 -29.258995,-9.489014 -35.804993,-12.348999c-14.066002,-3.891998 -26.493004,-15.984009 -39.488998,-15.731018c-24.359005,7.356995 -39.590004,30.942017 -61.621003,5.757996c-9.31,-10.641998 -12.603,-25.064987 -8.101,-42.942993c4.497,-17.878998 24.965,-31.332993 33.591999,-5.464996c0.341,3.675995 -0.623997,12.244003 -5.656998,11.367996c-4.482,-8.630005 -2.34,-18.414993 -14.727001,-9.569992c-6.07,9.175995 -6.252,19.024994 -1.941,28.94899c0.146,0.044006 0.288,0.094009 0.436,0.137009c-0.367,1.151993 3.680001,6.154999 5.044,7.856995c10.885,8.434998 20.127001,6.28299 29.263002,-5.572006c19.930996,-28.937988 51.243,-11.470993 58.033001,-8.835999c21.717995,7.262009 44.852997,7.044006 68.393997,2.520004c10.111008,-4.649994 20.087006,-10.559998 29.432007,-18.302002c7.676987,-6.700989 20.498993,-24.983994 28.640991,-36.201996c-3.110992,1.714996 -5.742996,2.554001 -7.617004,3.957993c-3.969986,2.514999 -32.780991,13.737 -43.950989,15.554001c-2.662003,0.514999 -30.911011,2.593002 -35.703003,1.820007c-23.32,-5.707001 -36.702003,-15.084 -49.578003,-34.531006c-11.948997,6.212006 -18.808998,-7.687988 -26.829002,-6.893997c-4.644997,2.412994 -0.988998,22.434006 5.360001,24.916c1.150002,-2.888 0.517006,-6.651993 0.284004,-9.419998c9.316002,-15.682999 25.599998,26.320999 -3.661003,25.867996c-24.498997,-7.742996 -22.633999,-29.188004 -24.141998,-49.238998c6.909,-23.102005 16.167,-24.057999 38.684998,-17.571991c5.388,2.257996 5.388,2.257996 5.674004,2.108994c-1.279999,-20.771004 17.304001,-30.667 34.762001,-36.006004c0.346001,0.664001 12.790993,1.664001 14.418999,2.022003c11.574005,-2.762001 32.335007,19.810997 30.910004,32.594002c0.147003,0.285995 0.29599,0.569992 0.442993,0.854996c-4.145004,13.113007 -4.815002,16.231003 -15.432999,25c-2.938995,1.529999 -9.069,3.869003 -11.617996,5.915009c0.820999,0.658997 12.667999,3.293991 14.505997,1.495987c11.960999,3.781006 53.972,-30.330994 61.152008,-42.011993c-7.411011,-3.134995 -16.004013,-5.535995 -22.033005,-9.026001c-17.889999,8.451996 -28.602005,1.978012 -37.964996,-13.031998c-2.626999,0.042999 -5.887009,-0.433998 -7.075012,-0.176003c-0.444992,-0.852997 -10.537994,-4.281998 -12.274994,-5.305c-14.845001,-10.958 -22.93,-26.748001 -1.781006,-37.734001c11.706009,-3.434998 24.251999,7.270004 5.371002,10.336006c-13.371994,6.945999 -0.389999,21.037994 11.654999,14.778c0.410004,-1.296005 0.042007,-6.404999 -0.209,-7.357002c0.188004,-0.097 0.378998,-0.195999 0.568008,-0.294998c3.916,-18.656006 14.119995,-23.355003 33.231003,-20.879005c8.431992,4.409004 16.863998,8.818001 25.348999,13.324005c7.882996,12.162994 32.370987,18.950996 47.261002,20.725998c4.54599,-2.843002 7.839996,-9.251999 12.72998,-11.431999c0.453003,-1.441002 6.450012,-6.123001 8.287018,-7.919998c9.994995,-12.059006 20.050995,-26.314003 28.971008,-39.742001c-2.535004,-15.542002 -3.937012,-26.018002 15.599976,-29.905002c3.110016,0.19 9.723999,0.229 13.548004,1.632999c4.979004,-5.717 12.97702,-7.947999 20.201019,-10.499c5.043976,-0.131 9.22699,1.429 12.690979,4.729c-0.22699,0.719 1.032013,1.750999 1.813995,2.792c30.972015,-12.689 64.69101,-17.866 86.600006,20.636c18.296997,4.945999 9.438995,27.479 -5.596008,47.468002c-10.658997,19.301994 -47.35199,16.738998 -47.253998,15.162994c-0.044983,0.143005 27.313019,56.504005 29.438019,63.832008c1.673981,3.224991 2.802979,5.166992 6.526001,7.929001c-1.076996,-2.738998 -5.388,-10.744003 -6.121002,-12.473007c-7.368011,-17.354004 -11.207001,-52.870995 22.846008,-52.459c5.904999,1.659004 13.268982,1.493004 17.780975,6.175003c15.938019,10.505997 25.88501,32.194992 27.526001,51.815994c0.145996,0.287003 0.296021,0.570999 0.585999,0.900009c10.716003,-2.559006 34.267029,8.690994 34.494019,23.266998c-2.559998,10.604004 -8.983032,18.636993 -19.213989,21.666c-3.413025,1.772995 -7.403992,3.363998 -9.184998,5.735992c1.231995,2.367996 8.666992,3.927002 12.493958,10.369003c-1.902954,3.516006 -3.674988,6.362 -7.088989,8.136993"/>
   <path fill="#44058E" fill-rule="evenodd" id="path9" d="m516.434998,224.539993c-14.894012,-0.559998 -15.727997,-14.467987 -15.061005,-16.664993c2.412994,-7.636993 3.365997,-13.029999 11.805023,-17.414001c2.492981,0.391006 5.182007,1.160995 8.709961,0.533005c-0.052979,-0.335007 -0.105957,-0.669998 -0.065002,-1.05101c-2.126953,-1.543991 -6.875,-2.569 -7.056946,-1.992996c-3.835022,-0.65799 -7.719025,-1.410004 -10.446014,-1.557999c-0.021027,-1.434006 1.296997,-2.839005 1.223999,-4.367996c5.696991,-11.753006 -5.470001,-22.811005 14.996002,-16.341995c10.589966,4.852997 21.651978,10.18399 14.315979,24.11499c-1.552979,4.046005 -9.70697,9.587006 -22.442017,15.876999c-7.288971,7.762009 3.619019,10.061005 8.794006,13.99501c0.088013,2.483994 -3.255981,4.077988 -4.773987,4.870987"/>
   <path fill="#44058E" fill-rule="evenodd" id="path11" d="m530.270996,185.798996c-0.195007,-0.145996 -0.343018,-0.188004 -0.388977,-0.283997c0.190979,-9.132004 -14.210022,-12.970993 -10.252991,-16.953003c2.500977,4.122009 17.195984,11.539001 10.641968,17.237"/>
   <path fill="#44058E" fill-rule="evenodd" id="path13" d="m482.565002,207.330994c-2.244995,0.083008 -3.213013,-0.618988 -4.225006,-1.175995c-0.854004,0.443008 -10.906006,8.677994 -11.061981,1.891006l-0.475006,0.248993c-2.363007,-1.539993 -1.800018,-2.076996 -4.046021,-1.992004c-6.23999,10.469009 -13.332977,0.064011 -17.161987,-0.113998c-10.292999,8.236008 -15.365997,-4.541992 -18.992004,-4.102997c-10.988007,7.055008 -10.02301,-7.684006 -15.75,-7.595001c-1.729004,5.475006 -11.57901,-0.966995 -11.677002,-7.179993c-2.421997,-4.658005 -11.337982,2.530991 -11.527985,-9.666l-11.108002,-7.475998c1.729004,-5.478012 -5.981018,-3.397003 -7.968018,-8.147003c0.424011,-0.341003 0.946014,-0.729004 1.514008,-1.025009c1.087006,-9.959 -3.703003,-19.875992 -4.713013,-29.468994c0.146027,0.044998 0.384003,0.042999 0.670013,0.134003c-1.821991,-3.509003 2.567993,-13.139999 -0.494995,-13.473c-5.56601,10.842995 -2.902008,25.474998 -0.140015,37.047997c0.620026,6.061996 -3.345001,6.311996 -3.955994,10.003998c-6.010986,3.125 -15.635986,3.60701 -16.93399,11.449005c-5.102997,0.841003 -15.583008,-6.115005 -15.350006,5.686996c-4.269012,2.216003 -2.065002,2.518005 -4.644989,5.665009c-0.051025,-0.094009 -5.298004,0.463989 -5.779999,0.232986c-3.295013,3.397003 -10.164001,13.353012 -15.223022,4.779999c0.290009,-2.921997 -3.149994,-2.820999 -0.049988,-6.355988c-0.104004,-6.478012 -9.830994,0.132996 -4.325989,-10.641998c5.098999,-4.093002 -5.174011,-6.946014 1.339996,-15.270004c-0.556,-1.998001 -1.575012,-3.033997 -1.925018,-3.938004c1.920013,-2.563004 3.571014,-7.031998 6.056,-10.132004c5.39801,8.999008 -4.655975,13.983002 3.190002,20.74501c-2.901001,3.916992 -4.276978,7.523987 0.179016,11.468994c-11.486023,14.278 19.53598,17.429993 9.28598,-2.294998c-0.334991,0.050995 -0.667999,0.104996 -0.904999,0.110992c-1.277985,4.033005 3.012024,9.271011 -4.255981,12.207001c-4.438019,-2.513 -6.572021,-7.786987 -0.819,-9.689987c-0.197998,-0.378006 -0.39502,-0.759003 -0.449005,-1.094009c-8.502991,-2.686005 1.188995,-9.528 0.197998,-11.903992c-7.026001,-3.09201 -1.402008,-10.113007 -1.536011,-15.702011c-3.800995,-10.791992 -1.013977,-3.569992 -0.390991,-9.794998c17.554993,-32.967995 -21.458984,-39.670998 -19.740997,-12.261002c-0.093994,0.048004 -0.188995,0.098999 -0.234009,0.240997c-3.266998,-2.371994 -0.807007,-6.417992 -1.854004,-8.431992c0.423004,-12.624001 8.328003,-17.815002 20.201019,-16.520004c0.050995,0.097 0.097992,0.190002 0.145996,0.284004c11.207001,-1.847 11.889008,20.561996 7.734985,26.933998c-0.385986,2.970993 1.018005,10.070999 -1.292999,12.352997c0.096008,-0.047989 0.240997,-0.000992 0.480011,-0.00499c-0.32901,0.291992 -1.507996,1.264999 -0.358002,1.630997l5.88501,21.750992c0.069,1.291 0.135986,2.581009 0.349976,3.916c0.042999,-0.14299 0.090027,-0.287994 0.184021,-0.33699c1.794006,1.595993 3.454987,0.853989 6.238983,4.58699c0.378021,-0.196991 0.852997,-0.444 1.376007,-0.595001c-0.113007,-4.156998 -4.285004,-5.001999 -5.699005,-6.79599c4.317017,-5.944 3.136993,-5.710007 9.050018,-5.061005c2.569977,-3.865997 -4.833008,-3.511002 2.91098,-9.703003c-0.246979,-0.474991 -0.493988,-0.94899 -0.596985,-1.377991c-4.526001,0.789001 -5.783997,3.007996 -5.528015,7.209c-1.990997,1.03299 -3.796997,1.731995 -5.115997,2.901001c-6.358002,-12.234009 -8.264984,-8.71701 -4.520996,-23.305008c-2.908997,-11.857002 8.937988,-30.778999 -9.363007,-36.567001c-0.244995,-0.233994 -0.437988,-0.375 -0.535004,-0.560997c-12.998993,0.249001 -16.502991,-0.702003 -22.938995,12.639999c-3.098999,9.797997 1.31601,29.183998 15.731995,24.944008c10.811005,-5.616013 3.298004,-12.19101 1.870026,-17.95401c-6.503998,-0.230995 -7.679016,3.993004 -10.240997,8.334c-10.828003,-7.862 18.042999,-29.246994 17.904999,-1.235001c-1.94101,7.391006 -2.310028,8.305008 -2.880005,8.361008c-0.351013,2.110001 -10.850006,15.513992 -10.985016,9.919998c-0.337006,-0.184006 -0.675995,-0.371002 -0.916992,-0.606003c-7.584991,3.942993 -7.246002,-1.893997 -13.623993,-0.024994c-0.886017,-1.708008 -1.390015,-3.375 -1.692993,-4.419998c-8.502014,-2.687012 -4.440002,-2.75 -6.044006,-7.698013c-10.575012,-1.90799 -1.647003,-27.637993 2.520996,-31.914993c3.463989,-4.050003 14.212006,-13.711998 18.846985,-9.239998c2.865997,-3.374001 6.338013,-2.870003 11.44101,-0.460007c-0.074005,0.945007 0.148987,3.992004 0.653015,4.960007c0.042999,-0.146004 0.089996,-0.288002 0.228973,-0.482002c2.846008,1.532997 3.048004,2.150002 7.483002,1.650002c2.364014,4.553001 5.634003,2.735001 7.058014,8.016998c0.639008,1.233002 1.941986,2.121002 3.447998,3.627998c-4.876007,15.417999 18.451996,9.321999 7.72699,-1.125c-4.036987,-1.274002 -7.703003,-0.452995 -9.280975,-3.489998c0.320984,-1.007004 5.373993,-7.318001 6.612976,-7.721001c3.662018,2.250999 5.789001,7.712997 9.737,10.909996c0.190002,-0.099998 0.428009,-0.101997 0.763,-0.157997c0.243011,0.234001 0.53302,0.566002 0.921997,0.848c-0.567993,0.783005 1.596008,5.735001 2.105011,6.374001c1.877991,0.832001 4.463989,1.171997 5.666016,4.642998c-0.237,0.000999 -0.333008,0.054001 -0.430023,0.101006c0.098999,0.190994 0.247009,0.474998 0.489014,0.709999c-1.020996,3.223 -1.050018,3.164001 0.76001,5.867996c-0.216003,1.438004 -0.494019,2.062004 -0.286011,3.159996c-0.141998,-0.046997 -0.286011,-0.091995 -0.382996,-0.042999c0.888,1.708008 -1.915009,2.803009 -2.609009,4.247009c3.548004,6.828003 -2.619995,9.792999 -0.352997,14.153992c-0.925995,0.956009 -1.02301,2.917999 -0.036011,3.872009c-1.044006,0.543991 -1.834991,5.046997 -2.151978,6.056992c-1.049011,0.06601 -2.006012,0.078003 -2.913025,0.189011c0.887024,1.699997 0.692017,2.167999 2.39502,3.212997l8.462982,-42.820007c-9.25,-19.882996 -29.186981,-35.538994 -51.102997,-33.904999c-0.240997,-0.234001 -0.339996,-0.424995 -0.438995,-0.614998c-0.139008,0.192001 -0.233002,0.482002 -0.227997,0.722c-23.511993,0.414001 -41.283997,25.544998 -34.256012,47.187004c-3.802979,1.250992 -9.694977,6.603989 -5.777985,9.502991c2.674988,-1.388 0.626007,-7.294998 6.537994,-6.647995c5.71701,11.000992 11.858002,15.397995 24.755005,17.970001c0.592987,1.136993 0.47699,2.087997 0.914001,3.380005c-5.880005,3.054993 -18.897003,14.393997 -24.235992,9.218994c-4.134003,1.546005 -1.562012,7.194992 -10.951019,5.811005c-0.652985,-1.255005 -0.237,-2.035004 -1.197998,-3.231003c-5.310989,2.759995 -6.802994,8.231995 -14.703995,4.388992c-3.412003,1.77301 -3.945007,4.458008 -7.790009,6.093002c-3.900986,-2.147995 -4.304993,10.406998 -13.869995,5.762009c-2.263,1.179001 -3.738998,14.319992 -10.636002,7.575989c-6.638,3.447998 -5.806992,7.593002 -14.664993,3.524002l-11.859009,2.910004c-0.431992,-0.138 -0.814987,-0.179001 -1.197998,-0.222c-7.718002,14.007996 -15.257004,-1.031006 -17.557999,2.138992l-13.162003,2.02301c-4.072998,5.606995 -8.850998,-0.580002 -11.013992,-1.264999c-5.084,2.037003 -5.443008,0.421997 -7.684998,-2.507004c0.955994,-3.029999 -10.174004,0.585999 -9.421005,-6.309998l-2.164001,-0.921005c-5.436996,0.89801 -6.588997,-2.479996 -8.454002,-5.604996c-4.747993,-1.024994 -4.212997,-0.460007 -6.414993,-3.770004c0.089996,-0.289993 0.325996,-0.530991 0.560997,-0.774002c-1.625,-3.128998 -5.094002,-4.702988 -6.973999,-8.78299l-5.453003,-15.594009c2.051003,-6.485001 5.313004,-2.757996 0.351006,-11.381989l5.037994,-7.917007c-3.529999,-2.621002 -1.027,-7.539001 2.681,-8.981003c0.576004,0.182007 1.429001,-0.260994 2.521004,-0.708c0.036995,-0.620995 0.216995,-1.436996 -0.167999,-1.716995c-0.128006,-8.124001 5.574997,-4.103004 11.110001,-7.818001c1.138,-3.607002 3.765999,-3.646004 7.425995,-1.937004c3.699997,-1.922997 6.057007,-4.107994 9.895996,0.041c4.979004,0.541 7.444,-2.182999 11.124008,3.973999c6.447998,-3.350998 6.569992,5.738007 12.653,6.554001c2.313004,1.206001 8.162003,11.534004 8.5,14.971001c-4.501007,5.472 2.389999,8.997009 -5.966995,12.615997c-0.042007,0.384003 -0.084,0.766998 -0.125,1.14801c-0.188004,0.10199 -0.285004,0.149002 -0.381012,0.197998c-4.201996,-5.697998 1.710007,-5.365997 2.208008,-9.938004c-4.076996,2.119003 -3.908005,-8.447998 -3.822006,-9.214996c-0.528992,-0.324997 -1.060989,-0.653 -1.498001,-1.027008c0.296005,0.568008 0.024002,1.432999 -0.352997,1.868011c-3.884003,-1.228012 -3.188004,-10.475006 -6.904999,-7.491013c-5.848999,1.955002 -3.552002,-4.055992 -6.117004,-5.975998c-0.935989,0.590004 -3.132996,1.441002 -3.112991,2.580002c-5.425003,1.614998 -10.005997,-18.283997 -17.369003,-3.015999c-2.636002,-0.439003 -5.898003,-1.152 -5.857002,1.475998c-3.794998,1.970001 -2.253998,2.615005 -2.194,6.44001c-3.224998,1.672989 -5.778999,0.472992 -6.959,4.216995c0.143005,0.044998 0.334999,0.186996 0.527,0.326996c-2.097,3.378006 -0.933998,4.460007 1.278,8.248001c-2.087997,1.085999 -4.052002,0.779999 -5.440002,0.660995c-2.446999,2.473007 0.580002,9.693008 2.492004,12.675003c0.096001,-0.050003 0.527,0.087997 0.534996,0.565002l-2.089996,0.843994l9.061996,13.963013c0.375,-0.439011 0.560005,-0.774002 1.942001,-0.894012c0.247002,0.477005 0.542999,1.042999 0.935005,1.564011c0.188995,-0.098007 0.377998,-0.197006 0.662994,-0.345001c0.371002,1.554993 1.990005,2.835999 0.739006,4.431992c-0.239006,0.007004 -0.478004,0.009003 -0.622002,-0.033997c-0.276001,0.623001 -0.554001,1.25 -0.833,1.873993c0.048996,0.096008 0.147995,0.284012 0.247002,0.474014c3.303993,0.330994 7.480995,-4.609009 11.519989,3.167999c-1.411995,7.477997 7.338013,-4.654007 11.569,6.033997c0.142014,0.042999 0.286011,0.091003 0.480011,0.227997c6.061996,-3.628998 4.852997,-1.554993 10.313995,2.472c5.451004,-3.192993 6.856003,-4.886993 12.906006,0.037003c2.58699,0.104004 3.197998,-6.598007 11.843994,-3.863007c0.681,0.610001 1.865005,3.125 4.046005,1.992004c1.697998,-7.628998 6.022995,-9.270996 13.033997,-4.125c3.738007,-1.940994 2.916992,-12.348007 10.938995,-6.524994c3.606003,-1.876007 0.834,-10.912003 9.705002,-9.138c0.393997,0.756989 1.399002,0.838989 2.874008,0.431992c-0.056,-0.571991 -0.017014,-1.194992 0.023987,-1.815994c-10.511993,-2.60701 -8.82399,1.572998 -13.704987,7.23999c-8.894012,-0.194992 -5.889008,2.57901 -10.545013,7.286011c-10.050995,-6.820999 -8.587997,1.089996 -14.18399,3.996002l-14.072998,1.895996c-5.883011,-3.445999 -7.304001,-2.708008 -12.529007,-0.477005c-1.774994,-3.412994 -8.436996,-4.645996 -10.039993,-3.093002c-1.598007,-1.455002 -6.089005,-4.302002 -6.315002,-3.580002l-3.643005,-0.519989l-0.418991,0.580994c-3.750008,-4.434998 -4.964005,-5.608994 -9.260002,-5.304993c-2.021004,-3.889008 -2.280006,-5.080002 -4.761002,-7.764008c0.577995,-4.352997 0.223999,-5.201996 -2.232002,-8.475998c0.044998,-0.143005 0.090004,-0.287994 0.183998,-0.337006c-0.333,0.053009 -0.522995,0.151001 -0.712997,0.249008c-0.532997,-0.565002 -0.973,-1.179001 -1.364998,-1.697998c0.145996,0.044998 0.289001,0.093002 0.528999,0.085999c-0.006004,-0.236008 -0.008003,-0.475998 0.036995,-0.621002c4.080002,-2.117996 3.571007,-7.033997 2.167,-11.121994c4.933006,-2.564011 4.772003,-3.803009 4.875,-9.396011c-1.561996,-5.091995 5.517006,-1.903992 5.93,-9.220993c1.609009,-0.841003 4.44101,-0.025009 7.287003,-1.501999c2.738998,0.865997 3.800995,3.563004 8.733994,1c2.505005,4.358002 1.851013,5.181992 8.052002,4.367996c0.869003,3.522995 1.348999,6.768005 5.859009,7.794998c-0.583008,2.591003 -0.455002,4.694 1.970001,6.807007c-1.733002,5.475998 -3.128998,6.082001 1.220001,12.130997c-2.761002,3.722992 -4.009003,3.408005 -7.866013,4.328995c-3.192993,6.837006 -5.806992,4.822998 -10.584,4.897003c-3.459991,10.953003 -13.386993,-6.292999 -14.171997,-7.811005c3.876007,-2.737 11.376999,-2.901001 17.421005,-7.72699l-15.262009,-13.141998c-7.965996,4.138 -5.209991,15.470993 -7.454994,18.562988c8.295998,23.152008 23.111,26.173004 48.573997,22.093002c25.875,-11.395004 46.296997,-35.134003 67.947006,-53.730995c5.102997,-3.857002 49.914993,-39.304001 49.805008,-43.221001c7.856995,-5.046997 10.458984,-15.793999 17.014984,-21.490002c2.188019,-6.917999 9.071014,-13.140999 11.96701,-20.549999c-8.755005,-16.844 2.446991,-25.917 20.940002,-24.365c2.019989,3.888 -1.373993,14.5 -4.085022,16.933001c2.532013,4.880001 9.082001,-8.118 8.571014,-11.439001c-0.524994,-7.644 23.294006,-26.434 33.596985,-3.125c-0.112976,1.865 0.971008,6.963001 -0.869995,8.522001c0.063019,0.809999 -0.187988,0.470999 0.878998,1.362999c1.013,-1.25 2.854004,-5.815001 3.361023,-6.077999c1.86499,1.101999 6.007996,2.181999 6.884003,3.872c-0.226013,0.719 -2.173004,1.611 -2.269012,1.66c-7.493011,-2.368 -8.208008,9.930998 -14.283997,9.593c-1,-0.698002 -1.511993,-2.541 -0.723999,-3.478001c-3.153992,-6.071001 -4.171997,11.931999 6.311981,3.596001c2.282013,-2.303001 4.458008,-8.83 8.924011,-7.419001c11.17099,-3.997 -2.522003,-8.566999 -5.617004,-10.812c-0.511993,-2.142 -0.927002,-4.333 -1.345001,-6.526999c0.799011,-1.018001 12.653015,-3.925 15.652008,-4.882c25.927002,-4.8 45.684998,2.398 62.272003,23.887002c4.458008,3.946999 10.432007,6.863998 12.682007,13.520996c-7.673004,10.493 -17.144012,43.718002 -35.596008,40.658005c-7.872009,4.090996 -37.640991,-10.554001 -39.381012,-8.803001c5.124023,9.863998 12.546997,19.977997 17.985016,31.603996c-0.188019,0.098 10.393982,22.781998 12.152985,25.240005c-0.095001,0.050003 -0.141998,0.194 -0.186981,0.338989c-0.144012,-0.044998 -0.287994,-0.091995 -0.434021,-0.136993c0.154999,0.524002 2.854004,5.261993 3.486023,5.774994c-0.333008,0.056 -0.574005,0.059006 -0.763,0.159012c3.947998,5.050995 5.971985,12.190994 10.074982,17.764999c-0.096985,0.050995 -0.191986,0.10199 -0.234985,0.242996c-4.95401,-1.880005 -11.683014,-10.427994 -14.593994,-13.251007c-5.32901,1.868011 2.29599,7.629013 3.838989,10.169006c-0.140015,0.192993 -0.187012,0.339005 -0.184998,0.576004c1.003998,-0.156998 12.567993,11.899994 18.618988,13.809998c8.895996,6.457993 25.315002,14.186005 34.583008,1.423004c0.549011,-1.490005 4.201996,-21.814011 1.880005,-23.499008c-0.237,-2.414993 -5.029999,-11.923004 -4.787994,-12.690002c-5.042023,-1.591995 -9.371002,-9.458992 -15.201019,-0.048996c-5.815979,13.139008 6.555023,21.647995 14.609009,29.503006c-1.608002,4.089996 -5.781006,6.257996 -9.214996,6.837997c-3.791992,-7.305008 -11.733002,-13.776001 -10.279999,-21.637009c-0.804016,-2.472992 -1.678009,-3.463989 -2.609009,-5.028c0.783997,-1.731995 1.082001,-4.173996 0.963989,-5.559998c0.095001,-0.048996 0.239014,-0.003998 0.478027,-0.007996c-0.887024,-1.705994 -1.723999,-3.317001 -2.563019,-4.931c0.938019,-1.209 1.317993,-4.417007 0.915009,-5.895004c3.602997,-1.869995 4.265991,-2.214996 5.20401,-6.437996c1.286987,-0.306 4.054993,-0.539001 6.862,-1.396004c1.381989,2.658005 3.393982,3.055 7.072998,2.948006c1.345001,3.517998 1.85199,5.418999 7.313995,6.195c3.035004,4.686005 7.334991,10.641998 12.044006,15.302002l-0.857025,3.453995c-4.246002,3.414001 -1.511993,7.289993 0.279999,11.660004c-1.615997,3.610992 -1.436981,6.043991 -0.034973,10.134003c-4.289001,3.794998 -4.947998,7.627991 -3.906006,12.870987c-3.222015,2.155014 -6.596008,6.317001 -4.675018,10.014008c0.525024,-0.151001 1.046021,-0.302002 1.620026,-0.358994c0.575989,-5.84201 5.203979,-6.438004 6.163971,-9.464005c-4.388977,-8.440002 3.34903,-8.848007 3.85202,-13.443008c-5.041992,-1.595993 -0.042999,-8.891998 0.307007,-11.000992c-8.524017,-4.117004 0.998993,-9.430008 -1.88501,-13.591995c0.329987,-0.292007 0.661011,-0.584 1.131012,-0.831009c-0.002014,-0.237 -0.003021,-0.479004 0.086975,-0.764999c-6.773987,-2.140991 -3.885986,-7.013992 -5.196991,-8.378998c-8.35199,-2.166 -4.039001,-4.527008 -5.862,-8.035004c-9.545013,0.867996 -5.643005,-3.209999 -8.229004,-6.563995c-3.859985,0.682999 -4.902008,1.223 -6.843994,-0.657005c-3.720001,-8.546997 -3.027008,2.052002 -10.307007,-1.991997c-0.380005,0.197998 -0.664001,0.345001 -0.949982,0.491997c-0.638,2.017006 -0.556,4.264 -1.095001,6.469002c-1.848999,0.960999 -3.10202,0.598 -4.559021,1.890999c0.257996,1.189995 0.548004,4.530998 -0.235992,6.264l-0.627991,-0.276993c-0.178009,0.815002 -0.304993,1.725998 -0.437012,2.634995c2.596008,0.820999 2.033997,10.867004 4.252991,15.132996c-0.220978,1.200012 -0.057983,2.44101 -0.89798,3.839005c0.026001,1.673996 7.471985,6.960007 4.419006,10.591003c0,0 7.916992,4.798996 5.798981,6.987c-0.625,-0.278 -0.625,-0.278 -2.153992,-0.206009c-6.052002,-1.915985 -3.886017,-7.016998 -8.141998,-10.104996c-2.937988,1.528 -3.195007,-8.938004 -3.294006,-9.127991c-8.774994,-4.833008 -2.341003,-9.139999 -4.587982,-12.069c-4.22403,-4.187012 -3.257019,-3.485001 -1.815002,-9.053009c0.569977,-0.296997 1.234985,-0.639999 1.898987,-0.985001c0.713989,-6.272995 -5.835999,-6.362999 3.266998,-11.091995c-0.704987,-8.549004 1.183014,-3.986 6.397003,-6.696999c-0.027008,-1.910004 -0.17099,-1.717003 0.951996,-3.264c-0.382996,-0.042 -0.67099,-0.133003 -0.958984,-0.223999c0.804993,-3.552002 4.388977,-6.855003 6.820984,-1.015007c4.632996,-0.117996 3.229004,-7.459999 8.970001,1.962006c2.514008,1.828995 2.937988,-7.548004 7.475006,1.178001c2.705994,1.963997 5.872009,-3.537003 7.636993,5.423996c0.480011,0.230003 1.106995,0.507004 1.734009,0.784004c0.468994,-0.483002 0.988983,-0.878006 1.507996,-1.266006c1.127991,1.703003 4.809998,5.087006 2.183014,8.142006c0.007996,0.473999 0.061981,1.045998 0.215973,1.571999c0.434021,0.138 0.915009,0.367996 1.396027,0.599998l4.132996,7.487c-0.424011,0.580994 -0.747009,1.112 -1.025024,1.737c2.628021,2.971008 8.146027,4.319 5.296021,11.580994c-2.447021,2.718002 3.162994,3.774002 2.914001,9.325012c-0.472015,0.244995 -1.736023,4.996994 -3.347015,6.072998c5.042999,1.593994 5.71701,11.000992 0.311005,13.811996c2.247009,3.514999 0.904999,11.869995 -5.128998,14.464005c1.79599,10.871002 -7.105011,7.184998 -9.234009,11.664993c0.084015,2.246002 -1.377991,3.369995 -2.368988,4.242996"/>
   <path fill="#44058E" fill-rule="evenodd" id="path15" d="m478.916992,194.052994c-5.677979,-2.347992 -11.497986,-4.744995 -13.868988,2.749008c-0.520996,0.149994 -1.044006,0.304001 -1.421997,0.5c-2.585022,-3.113998 -12.554016,-7.931 -12.414001,-2.100006c-0.714996,0.251007 -1.378998,0.595001 -1.946991,0.889999c-0.147003,-0.283997 -0.296021,-0.569992 -0.39502,-0.759003c3.062012,-5.926987 9.832001,-7.035995 15.035004,-1.431c5.334991,-7.344986 18.541016,-3.488998 15.011993,0.151001"/>
   <path fill="#44058E" fill-rule="evenodd" id="path17" d="m446.714996,195.128998c-0.47699,0.007004 -0.860992,-0.037003 -1.195984,0.016998c-4.038025,-7.776001 -9.85202,-9.692993 -16.476013,-5.287994c-3.688995,-3.623001 -1.928986,-10.438004 -11.386993,-6.848007c-0.046997,0.143005 -0.09201,0.28801 -0.089996,0.525009c-0.708008,0.487991 -0.708008,0.487991 -1.52002,0.550995c-4.266998,-6.817001 -3.260986,-9.988998 -11.394989,-7.328003c-1.298004,-0.409988 -2.907013,-8.606995 -5.807007,-10.712997c-0.283997,0.149002 -0.475006,0.244995 -0.665009,0.344009c-2.036987,-2.071014 -4.155975,0.113998 -5.340973,0.850998c-2.160004,-0.685013 -2.639008,-3.690002 -3.082001,-4.542007c-5.534027,-5.554001 -5.472015,-1.492996 -8.697998,-3.069992c-0.100006,-6.450012 -4.189026,-8.060013 -8.240021,-7.279007c-0.291992,-0.330002 -0.488007,-0.709 -0.636993,-0.994003c4.35199,-5.996002 8.928009,2.348007 10.89801,6.139999c4.527985,-0.785995 7.248993,1.891998 9.996002,6.488998c6.757996,-1.827988 11.02298,1.978012 12.721985,9.647003c4.709015,-1.362 9.192993,1.003998 11.192993,6.710007c4.800995,-1.652008 10.757019,0.070999 13.140015,5.815002c7.015991,-0.871002 15.462006,-1.766998 16.584991,8.972992"/>
   <path fill="#44058E" fill-rule="evenodd" id="path19" d="m474.931,159.268005c-6.915009,-2.186005 -14.053986,-15.458008 -9.490997,-20.118011c0.411987,-1.29599 1.828003,-2.515991 3.924988,-2.882996c6.264008,3.251007 8.001007,16.559006 5.906006,23.188995c-0.145996,-0.046997 -0.286987,-0.091995 -0.339996,-0.187988"/>
   <path fill="#44058E" fill-rule="evenodd" id="path21" d="m219.143005,269.175995c-3.32901,1.007996 -6.113007,0.283997 -7.589005,0.690002c-2.914993,9.223999 -10.968994,4.617004 -15.154999,5.828003c-4.037003,4.985992 -6.912003,4.31601 -11.647003,4.244995c-6.673996,10.334015 -11.033997,0.554016 -15.429993,0.667999c-5.990005,8.174011 -10.608002,-0.022003 -13.494003,-0.93399c-5.406006,2.807007 -5.541,0.229004 -8.559998,-0.248016c-7.268005,2.931 -5.911011,-2.108978 -9.657013,-3.293976c-4.909988,0.985992 -6.126999,-0.432007 -8.082993,-3.266022c-5.126999,-0.832001 -11.205002,-4.414978 -13.387001,-3.28299c-4.779999,0.075012 -4.965996,-2.838013 -7.334,-4.378998c-6.892998,2.497009 -13.556999,-4.997009 -17.607002,-7.230011c-12.153,-0.91098 -1.442993,-6.716995 2.375999,-0.991974c5.894005,0.911987 4.498001,-2.701019 8.998001,3.874969c2.964005,-0.095978 4.609001,-1.792999 8.477005,1.016022c2.069,3.981995 2.021996,0.875 6.987,0.463989c-0.047005,0.143005 -0.092003,0.290009 -0.042999,0.384003c3.93,0.608002 3.158997,3.29599 6.196999,4.968994c4.738998,-2.462982 7.007004,-1.110992 9.899994,3.528015c3.458008,1.09198 7.39801,-3.845001 12.804001,2.618988c2.484009,-0.083984 9.262009,-6.73999 13.255005,0.94101c1.597,-8.056 8.785995,-0.710022 12.613998,-0.292999c2.192001,-3.665009 2.873001,-5.826996 7.477997,-7.858002c3.749008,1.18399 4.153,5.671997 7.111008,-0.687012c4.742996,-5.471985 8.106995,-1.319 11.93399,-4.152985c0.529999,-8.943008 8.729004,-4.292999 12.087006,-6.640015c-0.602005,-1.853989 -0.602005,-1.853989 -0.675003,-3.381989c1.509003,-1.269012 2.110001,-2.662003 5.160004,-3.283005c1.145996,0.832993 3.985992,0.703003 5.412003,0.681992c1.25499,-5.470993 0.194,-6.123001 5.445999,-9.455002c1.151993,0.362015 7.93399,-0.028 4.597992,-2.509995c0.279007,-6.647003 2.404007,-5.341995 7.618011,-8.054001c0.791992,-7.516998 -1.585999,-12.785004 9.043991,-14.813004c1.300003,-2.363998 1.600006,-19.863998 11.472992,-12.22699c3.601013,1.139999 0.923004,-23.483002 11.613007,-12.417007c1.800018,-0.935989 3.351013,-21.12999 12.778992,-11.098999c0.333008,-0.050995 0.667999,-0.104004 1.094025,-0.205994c4.212982,6.483994 1.834991,19.520996 -7.532013,16.560989c-4.19101,-3.775986 -1.751007,8.164001 -3.656006,7.563004c-2.460999,7.779007 -9.207001,4.298996 -11.755005,6.346008c0.715027,6.25 -0.214996,7.700989 -4.988983,11.263992c-1.820007,-0.257004 -2.544998,-0.725998 -3.397003,-0.283997c-0.298996,5.455994 10.481995,0.936996 11.100006,-8.533997c6.653992,-2.494003 12.522003,-3.255997 12.600983,-13.533005c0.852997,-0.444992 9.891022,-0.201996 9.835999,-3.785995c5.120026,-2.660004 1.230011,-19.186996 -3.513977,-19.973999c-0.187012,0.33699 -0.278015,0.625992 -0.317017,1.009995c-9.30899,-5.162003 -11.343994,5.292007 -13.029999,10.619995c-8.380005,-4.07399 -11.498993,7.544006 -11.755005,12.613998c-8.653992,-0.199997 -13.423996,6.614014 -12.87999,13.918015c-7.880997,3.372986 -9.789001,6.650986 -8.800995,14.810989c-10.055008,5.223999 -4.083008,4.893997 -8.295013,10.693008c-5.602997,-0.580002 -8.788986,3.483002 -9.194,8.268997c-2.653,1.378998 -12.088989,0.141998 -11.082993,6.483002c-4.755005,1.509995 -10.624008,2.26799 -11.451996,7.63501c-5.878998,-0.196014 -10.069,0.776001 -11.757004,6.112976c-5.494995,0.084015 -4.063004,-3.188995 -9.981995,0.488007c-0.139008,0.19101 -3.320999,4.735992 -3.797012,4.744019c-7.190994,-4.574005 -6.580002,-2.002014 -12.337997,-0.335022c-2.774002,-3.255005 -7.917999,-2.028992 -10.399002,-1.701996c0.24501,0.475006 -0.981995,1.354004 -1.26799,1.502014c-3.549011,-2.578003 -8.132004,-4.003021 -12.177002,-2.346008c-2.216995,-4.268005 -7.715004,-4.179016 -10.431999,-3.85199c-2.119003,-4.078003 -8.435005,-4.409027 -11.237007,-3.315002c-3.483994,-2.766998 -6.316994,-3.582001 -9.467995,-3.14801c-4.950005,-4.895996 -15.409004,-7.408997 -20.419998,-3.845001c-1.873001,-0.589996 -1.790001,-1.356995 -2.372002,-2.018005c-8.459,0.181 -7.710999,-0.689987 -13.587006,2.363998c-2.185997,-2.116989 -17.374996,10.832016 -17.374996,10.832016c-18.252001,9.487 -31.413,9.700989 -44.202,-11.355011c-9.017,-17.354004 -0.432,-59.869003 22.703999,-46.242004c4.403,2.596008 7.334,13.652008 2.290001,18.082001c-2.589001,-9.616989 -3.409,-19.426987 -16.378,-11.002991c-13.563,13.067993 -7.243999,38.088989 8.809,46.967987c14.771,2.928009 22.717999,0.844025 30.873001,-12.905991c16.992001,-13.651993 23.621998,3.740997 39.670002,-0.141006c-0.148003,-0.283997 -0.247002,-0.472992 -0.249001,-0.710999c-8.869003,-1.534988 -23.381004,-9.531998 -31.221001,-6.542999c-0.147003,-0.283997 -0.245003,-0.473999 -0.249001,-0.712997c10.409996,-6.852997 19.737999,-3.030991 32.073997,0.074005c0.049004,0.095993 0.147003,0.283997 0.247002,0.473999c8.679001,1.875 21.114998,8.419998 31.389999,8.261002c15.497002,3.866989 35.527,0.929001 52.161003,-2.296997l27.68399,-17.875c14.127014,-10.594009 24.222,-28.483002 35.572006,-42.570999c6.768005,-10.381012 6.052994,-7.359009 20.103989,-10.445007c7.320007,0.412003 15.58902,-5.694 23.463013,-6.533005c1.29599,-1.978989 5.088013,-5.265991 7.115997,-6.468002c-0.231995,9.516006 -1.473999,15.702011 2.390991,24.534012c-1.691986,1.840988 0.002014,6.259995 0.19101,9.172989c-2.401001,11.604004 -7.313995,9.102005 -14.924988,11.608002c-0.727997,2.307007 0.809998,18.249008 -8.847015,15.195007c-1.708008,-2.363998 -1.652008,-1.792007 -3.220001,-1.337006c0.752014,6.221008 1.511993,14.406006 -7.110992,16.219009c-11.524002,-0.393005 -6.188004,10.804001 -17.735001,12.22699c-0.190994,-0.139999 -0.339005,-0.184998 -0.386002,-0.279999c-6.070007,3.152008 -5.123993,8.683014 -13.257004,11.341003c-2.972992,-2.432007 -7.671997,5.674011 -10.030991,6.899994"/>
   <path fill="#44058E" fill-rule="evenodd" id="path23" d="m353.407013,182.669998c-18.051025,0.949997 2.336975,-21.690994 6.552002,-8.945999c-0.882019,4.794998 -2.665009,6.925003 -6.552002,8.945999"/>
   <path fill="#44058E" fill-rule="evenodd" id="path25" d="m340.546997,185.738998c-20.087982,5.378998 -2.796997,-19.983994 3.390015,-3.449005c-0.796997,1.018005 -1.5,1.984009 -2.201019,2.952011c-0.428986,0.100998 -0.807983,0.298996 -1.188995,0.496994"/>
   <path fill="#44058E" fill-rule="evenodd" id="path27" d="m127.577003,276.527008c-0.194,-0.141022 -0.387001,-0.279022 -0.529007,-0.325012c-0.003998,-0.242981 -0.006996,-0.477997 -0.010994,-0.718994c0.147995,0.286987 0.343994,0.665985 0.540001,1.044006"/>
   <path fill="#44058E" fill-rule="evenodd" id="path29" d="m340.494995,151.563004c-10.681,1.695999 -9.273987,-9.27301 -0.898987,-11.699005c-0.098999,-0.188995 -0.050995,-0.332993 -0.006012,-0.475998c-9.65799,-3.052994 -5.790009,-12.529999 -3.515991,-4.680008c4.031982,4.28801 5.632996,-0.516998 5.140991,-4.47699c-0.333984,0.054001 -0.52301,0.149002 -0.713989,0.25c-0.488007,-0.708008 -0.928009,-1.324005 -1.365997,-1.939011c-5.364014,-0.583992 -5.688019,0.184998 -7.436005,-4.804993c0.513,-0.631996 -0.110016,-0.907997 1.799988,-0.940002c0.735992,1.187004 1.470001,2.368004 2.303009,3.502007c3.686005,0.371994 5.5,-2.857002 2.726013,-6.112007c-0.574005,0.056 -1.146027,0.115005 -1.722015,0.168007c-0.149994,-0.522003 -0.208008,-1.094002 -0.263,-1.667c3.697998,-1.923004 6.188995,1.480995 5.68399,5.837997c-2.213989,5.246002 6.27301,6.977997 -2.067993,14.565002c0.100006,0.188004 0.244995,0.473999 0.394012,0.757996c5.746979,0.630005 5.252991,8.955002 -0.058014,11.714005"/>
   <path fill="#44058E" fill-rule="evenodd" id="path31" d="m339.835999,149.134003c-8.231995,2.470993 -2.287994,-5.794998 -2.548004,-6.985001c3.494995,0.231003 8.806,3.735001 2.548004,6.985001"/>
   <path fill="#44058E" fill-rule="evenodd" id="path33" d="m351.664001,129.018005c0.088989,-0.528015 0.177002,-1.055008 0.312012,-1.487007c0.441986,0.855003 0.35498,1.380013 -0.312012,1.487007"/>
   <path fill="#44058E" fill-rule="evenodd" id="path35" d="m301.440002,135.966995c-6.518005,2.057999 -8.128998,-0.113998 -11.164001,-4.55899c0.141998,-0.195999 0.425995,-0.343002 0.712006,-0.490005c3.824982,3.192001 6.265991,-5.787003 10.246002,-8.095001c5.368988,1.063004 4.377991,10.975998 0.205994,13.143997"/>
   <path fill="#44058E" fill-rule="evenodd" id="path37" d="m333.658997,116.035004c-2.11499,1.571999 -3.772003,1.898994 -5.829987,-2.196007c-1.346008,-2.669998 1.11499,-4.648994 3.604004,-4.771996c2.019989,-0.098 5.722992,4.377998 2.225983,6.968002"/>
   <path fill="#44058E" fill-rule="evenodd" id="path39" d="m240.294998,160.147995c-1.442001,-0.457001 -1.970993,-0.781998 -2.972992,-0.623001c-1.823013,-3.506989 -8.134003,-0.028 -9.363007,0.612c-1.593994,5.505005 -3.210007,5.470001 -7.061996,6.718002c-0.733002,-2.334991 2.774002,-1.544998 3.72699,-3.261002c3.216003,-5.164001 2.685013,-8.741989 11.20401,-7.868988c0.244995,0.472 0.539993,0.802994 1.83699,1.212997c3.825012,-5.270004 -0.293991,-13.376007 12.205002,-11.279007c0.568008,-0.293991 5.117004,-11.935989 9.548004,-6.888992c-0.821014,2.593002 -9.229996,2.867996 -6.470001,8.177002c0.097,-0.049011 0.238998,-0.001999 0.384995,0.042999c-0.752991,0.871994 -0.934998,1.447998 -2.271988,1.42099c-12.853012,-5.723999 -10.378006,12.020004 -10.766006,11.737"/>
   <path fill="#44058E" fill-rule="evenodd" id="path41" d="m323.238007,99.346001c-0.907013,0.110001 -1.811005,0.218002 -2.625,0.280998c-2.089996,-2.405998 -3.406006,-4.011002 0.291992,-5.932999c0.963013,0.461998 1.925995,0.926003 2.890991,1.389999c-0.099976,-0.190002 -0.10199,-0.429001 -0.108002,-0.667999c0.146027,0.044998 0.338013,0.185997 0.628021,0.275002c-0.147003,-0.284004 -0.299011,-0.568001 -0.443024,-0.852005c-0.569977,0.296005 -0.53299,-0.324997 -0.585999,-0.656998c0.862,0.030998 1.822998,0.495003 2.028015,1.351997c-0.283997,0.146004 -0.519012,0.390007 -0.753998,0.633003c0.628998,0.515999 1.352997,0.982002 2.078003,1.450996c-0.550995,1.729004 -2.548004,2.284004 -3.401001,2.728004"/>
   <path fill="#44058E" fill-rule="evenodd" id="path43" d="m392.80899,57.775002c-1.855988,-3.499001 1.979004,-8.013 -5.502991,-9.665001c3.011993,-2.094002 4.824005,-1.681999 6.600006,0.183998c5.22998,-7.204998 -4.992004,-15.984001 -11.774994,-1.106998c-2.189026,2.460999 -2.01001,9.188999 -1.452026,11.112c-7.72699,-1.690998 0.799011,-14.889 3.048004,-19.167c15.576996,-12.431999 18.654999,10.175999 9.082001,18.643002"/>
   <path fill="#44058E" fill-rule="evenodd" id="path45" d="m335.050995,87.309998c-4.248993,-2.612999 -3.593994,-9.696999 -3.985992,-13.466995c-2.75,1.431 -4.923004,6.290001 -6.705017,8.419998c-0.47998,-0.229004 -0.962982,-0.461998 -1.303986,-0.649002c2.122986,-4.956001 8.70401,-18.25 13.378998,-18.991997c0.294006,0.566998 -0.893005,22.623001 -1.049011,24.873001c-0.142975,-0.047005 -0.28598,-0.092003 -0.334991,-0.185005"/>
   <path fill="#44058E" fill-rule="evenodd" id="path47" d="m314.916992,95.844002c-11.016998,1.749001 -2.394989,-12.488998 2.779022,-2.528999c-0.990021,0.873001 -1.886017,1.700996 -2.779022,2.528999"/>
   <path fill="#44058E" fill-rule="evenodd" id="path49" d="m224.460007,131.524002c-2.451004,-0.774002 -1.933014,-1.404999 -2.720001,-2.684006c-4.21701,-0.697998 -5.934006,2.723007 -9.081009,0.144012c-3.302002,-6.354012 -6.214996,-0.144012 -10.369003,-6.05201c5.503006,-5.631996 7.138,-17.320999 13.802002,-6.811996c0.725998,0.465996 2.151001,-0.034004 2.090012,-0.846001c0.758987,-0.394005 0.944992,-0.731003 3.054993,-0.382004c-0.046997,0.143005 -0.091995,0.286003 -0.042999,0.382004c1.802994,-0.937004 3.725006,2.763 4.761993,4.754997c1.151001,0.364998 9.018005,-6.975998 11.917007,1.153c-4.915009,3.515999 -9.199997,7.790001 -13.412994,10.342003"/>
   <path fill="#44058E" fill-rule="evenodd" id="path51" d="m78.858002,205.251007c-18.056004,3.722 -34.629002,-29.097 -21.018002,-39.061005c0.042999,-0.382004 0.042999,-0.382004 -2.067001,-3.744995c0.135002,-0.670013 0.318001,-1.246002 0.502003,-1.820007c0.091999,-0.052002 0.234997,-0.007004 0.380997,0.039001c-0.019997,-1.197006 0.367001,-0.914001 1.691002,-1.843994c1.68,0.453995 1.447998,0.934998 3.921001,0.12999c1.382,-3.367004 3.519001,-7.367004 7.663998,-2.173004c0.569,-0.297989 1.185997,-0.497986 1.899002,-0.746994c2.002998,-6.339996 10.696999,5.518997 12.321999,5.401001c1.058998,-2.598999 3.292999,-3.395996 6.792,-2.688995c-0.459999,4.214996 1.225998,8.156998 3.060997,12.381989c-6.543999,3.399002 -17.632996,-2.640991 -22.181,-6.298996c-0.856995,-2.807999 -0.856995,-2.807999 -1.544998,-3.895996c-2.346001,-0.347 -4.183998,4.462006 -4.837997,5.285995c-2.196003,0.180008 -2.627003,0.279007 -3.331001,1.007004c1.094002,2.804001 3.042999,8.173004 0.459999,11.322006c0.730999,3.957001 1.559998,7.862 2.432999,11.863998c3,2.294998 6.000999,4.593002 9.048004,6.981003c5.878998,-3.054001 1.771996,-9.108002 3.549995,-11.479004c-0.642998,-1.233002 0.624001,-2.972 2.149002,-3.044998c6.209999,5.688995 6.479004,16.868988 -0.892998,22.386002"/>
   <path fill="#44058E" fill-rule="evenodd" id="path53" d="m240.423004,119.134003c-0.005997,-0.479004 0.03299,-0.859001 0.075989,-1.246002c-0.339996,-0.188004 -0.674988,-0.372002 -0.964996,-0.459999c0.300003,0.806 0.300003,0.806 0.113998,1.144997c-1.440002,-0.457001 -1.638992,-1.073997 -2.367996,-1.778999c0.141006,-0.194 0.281006,-0.389 0.513,-0.631996c-0.492004,-0.947006 -0.737,-1.422005 -1.557007,-1.839005c-0.233994,0.245003 -0.469986,0.486 -0.612,0.679001c-0.238998,0.005005 -0.381989,-0.042 -0.526993,-0.087997c-0.229996,0.241997 -0.373993,0.434998 -0.514999,0.630997c-4.501007,-0.550995 -4.869995,0.362999 -7.623001,1.553001c-3.076004,-4.064003 -6.102997,-5.020996 -10.145996,-3.762001c-0.925003,-1.087997 -1.706009,-2.123001 -2.486008,-3.165001c-1.912003,0.029999 -3.069992,-0.574997 -4.547989,-0.407997c-0.242004,-0.233002 -0.436005,-0.375 -0.533005,-0.562004c0.526001,-12.198997 -3.932007,-19.155998 -13.550003,-25.841995c-1.684006,-0.690002 -6.352005,-2.722 -6.770996,-2.141998c-13.117996,-1.374001 -18.639999,6.312996 -28.255005,11.910995c-1.134995,-2.18 -0.210999,-4.344002 -0.099991,-6.210999c0.145996,0.044998 0.291992,0.090004 0.529999,0.087997c-4.535004,-8.726997 14.798996,-16.482994 21.729996,-16.590996c6.947998,1.089996 15.776001,3.241997 21.804993,9.75c0.758011,-0.396004 5.31601,3.737999 6.723999,5.054001c15.572006,11.661995 22.80101,18.620995 43.824005,21.065994c0.740997,1.425003 -11.785995,10.463005 -13.160995,11.297005c-0.044998,0.142998 -0.09201,0.288002 -0.085999,0.528c-0.568008,0.293999 -1.087997,0.681999 -1.513,1.025002"/>
   <path fill="#44058E" fill-rule="evenodd" id="path55" d="m113.68,169.815002c-0.618004,0.199997 -1.140999,0.352997 -1.613998,0.597992c-0.148003,-0.283997 -0.249001,-0.475998 -0.25,-0.712997c0.044998,-0.145996 0.186996,-0.33699 0.324997,-0.528992c-0.192001,-0.141998 -0.242996,-0.235001 -0.292,-0.331009c-0.141998,0.194 -0.279999,0.388 -0.372002,0.67601c-1.701996,-1.886002 -3.445,-3.388 -4.235001,-4.905014c0.096001,-0.050995 -0.573997,-3.194992 0.083,-4.016998c4.035004,1.274002 7.166,-0.35199 7.677002,8.054001c-0.520996,0.389008 -0.945999,0.730011 -1.321999,1.167007"/>
   <path fill="#44058E" fill-rule="evenodd" id="path57" d="m189.302002,126.906998c-0.427002,0.104004 -0.763,0.154999 -1.098007,0.209999c-1.013,-0.796997 -1.737,-1.027 -1.653992,-2.028c-0.524002,0.148003 -1.246002,-0.078995 -1.680008,-0.454994c-1.516998,0.790001 -1.567001,0.693001 -2.410995,1.614998c-5.408005,-0.202003 -4.210999,-3.233002 -6.229004,-3.869003c-4.847992,1.796005 -5.50499,-0.630997 -5.366989,-4.077995c-4.450012,-3.226006 -3.82901,-0.178001 -5.303009,-6.036003c3.221008,-1.673996 6.192001,-4.302002 10.087006,-5.844002c13.733002,19.242004 28.539001,-9.046997 4.084991,-7.902c-6.355988,3.300003 -18.383987,13.526001 -24.942001,9.948006c-20.401993,0.364998 -34.737991,-23.743004 -14.797989,-35.667999c1.571991,-0.215004 9.207993,-1.050003 10.684998,1.792c-0.957001,3.027 -19.237,-1.325005 -14.449997,17.385994c12.712997,24.467003 31.876999,-3.314995 45.761993,-8.120995c10.022003,-1.111 14.895004,1.777 21.391998,10.805c0.492004,0.948997 3.548004,6.826996 2.041,8.334c0.16301,1.238998 0.470001,2.525002 0.778,3.810997c-0.891998,1.062004 -1.36499,1.551003 -1.72699,2.701004c4.188995,8.063995 -8.468002,8.737999 -7.498001,12.689995c-2.374008,4.245003 -4.937012,-0.689995 -6.348007,3.779999c-0.475998,0.247002 -0.899002,0.590004 -1.324997,0.929001"/>
   <path fill="#44058E" fill-rule="evenodd" id="path59" d="m345.488007,45.511002c-1.64502,1.572998 9.953979,-19.216002 4.425995,-22.772001c-0.54599,1.729 -1.100006,2.980999 -0.540009,5.216c-0.28598,0.149 -0.567993,0.299 -0.708984,0.49c-2.167999,-4.174 -3.306,-6.591 1.441986,-8.817999c8.631012,4.858 -0.885986,23.944998 -4.618988,25.884001"/>
   <path fill="#44058E" fill-rule="evenodd" id="path61" d="m134.354996,153.048996c-2.897995,1.145004 -5.377991,1.470001 -7.527992,1.503998c-4.682007,-9.005997 17.012993,-24.737991 15.094002,-6.876999c-2.692001,2.240005 -4.960999,3.901001 -7.56601,5.373001"/>
   <path fill="#44058E" fill-rule="evenodd" id="path63" d="m365.752991,30.042999c-9.414978,0.195002 -6.634003,-23.890999 4.475006,-13.645c1.03299,5.002001 0.457001,11.082001 -4.475006,13.645"/>
   <path fill="#44058E" fill-rule="evenodd" id="path65" d="m111.657997,156.656998c-15.347,-3.349991 5.717003,-19.834 2.745003,-1.912003c-0.994003,0.639008 -1.891998,1.228012 -2.745003,1.912003"/>
   <path fill="#44058E" fill-rule="evenodd" id="path67" d="m187.466995,110.398003c-12.227997,-2.438004 -7.787003,-11.971001 0.396011,-5.264999c1.332001,2.559998 1.917999,3.459999 -0.396011,5.264999"/>
   <path fill="#44058E" fill-rule="evenodd" id="path69" d="m116.245003,144.154999c-7.302002,0.783997 -5.547005,-6.270004 -7.158005,-8.444c0.474998,-0.246994 8.493004,-4.052994 7.490005,-0.882004c4.049995,2.231003 1.979996,7.520004 -0.332001,9.326004"/>
   <path fill="#44058E" fill-rule="evenodd" id="path71" d="m90.946999,155.733002c-4.057999,0.302002 -5.061996,0.220993 -7.623001,1.554993c-1.266998,-1.511002 -2.482994,-2.927002 -3.700996,-4.343994c-0.191002,0.102005 -0.285004,0.149994 -0.330002,0.296005c-4.461998,-0.935013 -6.231003,-0.858002 -9.029999,0.235001c-8.719002,-4.263 -6.437,1.294998 -10.514999,3.412994c-8.355,-2.641006 -4.544003,8.865005 -6.454002,8.895004c-0.046997,0.144989 0.003002,0.240997 0.102001,0.429001c-0.990002,0.876999 -0.990002,0.876999 -1.375,0.834c-6.358002,-12.23201 8.222,-21.49501 18.938999,-20.802002c5.942001,1.007996 12.953003,2.910004 19.864998,4.854004c0.255005,0.952988 0.920006,3.618988 0.122002,4.634995"/>
   <path fill="#44058E" fill-rule="evenodd" id="path73" d="m121.697998,132.167999c-3.836998,-0.897995 -5.044998,-1.595993 -4.428001,-5.046997c0.096001,-0.047005 0.240005,-0.001999 0.478004,-0.010002c0.469002,-0.722 1.028999,-1.495003 1.591995,-2.267998c1.343002,0.264 2.683006,0.530998 4.076004,0.890999c0.398003,0.997002 0.792999,1.996002 1.194,2.993996c-0.466003,0.723007 -0.888,1.304001 -0.829002,2.115997c-0.758995,0.394012 -1.469002,0.88501 -2.083,1.324005"/>
   <path fill="#44058E" fill-rule="evenodd" id="path75" d="m131.389999,125.324997c-9.151001,1.624001 -5.746002,-9.902 1.389999,-2.890999c0.067001,1.292 -0.102997,2.584 -1.389999,2.890999"/>
  </g>
 </g>
</svg>