<svg xmlns:svg="http://www.w3.org/2000/svg" xmlns="http://www.w3.org/2000/svg" width="1080" height="1080" id="svg2" version="1.1"><defs id="defs4"/><metadata id="metadata7"/><g id="layer1" transform="translate(0,27.64025)"><path d="m460.65-1138.67c-0.13-3.11 0.57-4.86 1.55-3.88 0.98 0.98 1.09 3.53 0.23 5.66-0.94 2.36-1.64 1.66-1.78-1.79z" id="path9274" fill="#659898"/><path d="m474.15 601.45c-4.48-4.48-8.15-15.12-8.15-23.63 0-23.89-28.81-27.92-62.84-8.79-30.64 17.22-74.83 19.9-107.18 6.5-15.18-6.29-27.21-6.3-53.22-0.06-35.18 8.44-50.22 4.79-77.17-18.71-20.1-17.54-13.13-23.65 9-7.9 16.18 11.52 27 14.04 48.08 11.22 14.96-2.01 28.34-4.78 29.72-6.16 1.38-1.38-6.51-20.4-17.53-42.26-11.03-21.86-20.05-46.48-20.05-54.71 0-8.23-7.85-23.84-17.45-34.69-21.18-23.94-30.07-44.8-30.07-70.59 0-27.05 29.43-49.59 60.08-46.01 18.13 2.12 26.87-1.3 41.99-16.42 21.29-21.29 47.46-24.74 63.78-8.42 12.62 12.62 12.73 13.53 3.64 30.51-7.22 13.5-33.71 18.48-33.71 6.34 0-3.73 3.82-6.03 8.49-5.09 4.67 0.93 8.49-2.84 8.49-8.39 0-19.97-23.13-15.03-37.13 7.93-17.82 29.23-17.68 30.19 8.28 56.06 17.9 17.84 29.47 22.85 61.29 26.56 43.97 5.12 80.03-0.41 64.95-9.96-5.02-3.18-16.85-5.83-26.29-5.89-23.96-0.15-47.34-18.3-47.34-36.78 0-18.88 16.81-34.52 44.09-41.03 37.26-8.89 47.22-28.44 27.93-54.82-8.09-11.06-11.04-11.6-20.53-3.72-6.1 5.06-12.68 7.6-14.64 5.64-5.27-5.27 16.92-25.54 27.97-25.54 15.24 0 31.36 30.86 28.99 55.53-2.05 21.36-16.35 33.73-56.47 48.84-15.02 5.66 9.44 18.38 42.97 22.36l35.14 4.16-4.02-20.08c-3.09-15.43 0.06-24.92 13.56-40.96 9.67-11.49 17.62-25.03 17.67-30.09 0.2-18.73 21.39-69.48 40.76-97.64 18.35-26.66 65.14-57.53 87.22-57.53 18.92 0 47.3 21.22 57.7 43.16 25.07 52.84 9.31 113.32-42.64 163.59-39.26 37.99-36.8 44.19 16.58 41.76 34.05-1.55 46.58-5.01 54.1-14.94 21.05-27.82 1.41-57.94-22.32-34.22-10.29 10.29-10.22 11.11 0.93 11.11 6.67 0 10.08 3.18 7.64 7.12-6.03 9.75-23.56-5.26-23.56-20.17 0-26.75 42.87-38.15 64.01-17.01 20.85 20.85 5.33 78.69-23.58 87.87-7.71 2.45-13.02 7.46-11.8 11.13 4.25 12.74 96.02 46.48 126.42 46.48 25.62 0 33.58-3.73 56.2-26.36 33.28-33.28 35.08-58.8 6.38-90.65-16.59-18.41-22.06-20.9-32.25-14.65-14.53 8.9-19.72 28.48-10.1 38.1 10.79 10.79 24.02-0.56 14.3-12.28-5.24-6.31-5.49-9.58-0.73-9.58 11.15 0 16.15 12.25 11.27 27.61-5.92 18.65-30.94 14.8-41.47-6.4-10.61-21.37-0.41-50.36 21.94-62.32 14.76-7.9 20.08-7.46 40.12 3.33 12.71 6.84 31.07 23.94 40.8 37.99 14.57 21.02 16.87 29.99 13 50.62-9.68 51.6-68.83 105.31-115.96 105.31-19.24 0-104.49-25.31-163.39-48.5-39.12-15.41-32.4 0.12 23.24 53.63 61.17 58.84 72.85 84.16 52.85 114.68-13.18 20.11-29.24 19.16-90.22-5.34-35.29-14.18-36.36-14.22-59.23-1.9-23.27 12.53-44.32 10.79-86.44-7.12-8.48-3.61-11.88-1.93-11.88 5.86 0 6 3.06 10.91 6.79 10.91 3.73 0 6.79 3.06 6.79 6.79 0 9.37-15.91 8.53-25.8-1.36zm222.68-38.23c0-13.58-95.24-109.77-108.69-109.77-5.38 0-6.77 5.38-3.94 15.28 2.4 8.4 6.23 29.79 8.53 47.52 3 23.21 7.23 32.33 15.1 32.53 6.01 0.16 21.63 6.14 34.7 13.29 31.14 17.05 54.31 17.54 54.31 1.15zM552.9 553.92c4.48-4.48 8.15-14.46 8.15-22.17 0-18.23-28.54-71.55-37.34-69.75-3.73 0.76-18.23 16.62-32.22 35.24-28.49 37.91-26.53 45.2 15.25 56.93 32.52 9.13 36.81 9.11 46.16-0.25zm-183.64-2.92c8.4-2.25 15.28-8.72 15.28-14.37 0-8.18-6.3-9.56-30.89-6.79-35.2 3.97-44.44 9.79-30.02 18.92 11.61 7.34 24.28 7.97 45.63 2.24zM320.86 517.16c18.18-7.6 37.25-9.83 62.11-7.26 39.05 4.03 49.52-2.25 77.04-46.27 18.5-29.58 16.31-31.35-19.31-15.59-23.89 10.57-44.61 13.96-81.02 13.27-48.54-0.92-48.94-0.78-51.07 17.67-2.52 21.9-28.16 30.01-35.38 11.2-5.54-14.43 1.49-22.5 9-10.35 4.46 7.22 6.63 7.3 10.89 0.4 3.33-5.38-0.46-13.3-10.09-21.09-18.52-15-23.39-15.41-33.78-2.89-6.15 7.41-5.51 15.45 2.83 35.4 16.48 39.44 26.53 43.17 68.78 25.51zM306.46 416.09c-14.94-5.28-35.63-19.03-45.99-30.55-10.36-11.52-21.95-19.02-25.76-16.67-9.33 5.77-26.74-9.47-26.48-23.18 0.18-9.69 1.06-9.59 7.13 0.83 10.22 17.55 28.03 15.21 25.39-3.33-2.75-19.28-25.54-24.16-37.36-8-23.36 31.95 6.02 77.44 50.14 77.62 14.18 0.06 30.37 3.07 35.97 6.69 5.6 3.62 17.82 6.49 27.16 6.39 13.51-0.15 11.43-2.15-10.18-9.8zM574.52 329.31c-0.33-25.97-34.65-34.28-39.42-9.54-3.67 19.07 11.27 32.91 26.65 24.67 7.08-3.79 12.82-10.6 12.76-15.13zm-99.4-13.04c2.15-8.24 2.34-16.55 0.42-18.47-4.39-4.39-16.09 13.61-16.23 24.97-0.17 14.28 11.64 9.43 15.81-6.49z" id="path9371" fill="#000"/></g></svg>