<?xml version="1.0" standalone="no"?>
<!DOCTYPE svg PUBLIC "-//W3C//DTD SVG 20010904//EN"
 "http://www.w3.org/TR/2001/REC-SVG-20010904/DTD/svg10.dtd">
<svg version="1.0" xmlns="http://www.w3.org/2000/svg"
 width="422.000000pt" height="491.000000pt" viewBox="0 0 422.000000 491.000000"
 preserveAspectRatio="xMidYMid meet">
<g transform="translate(0.000000,491.000000) scale(0.100000,-0.100000)"
fill="#87480E" stroke="#87480E">
<path fill="#87480E" d="M1655 4889 c-217 -22 -520 -90 -750 -169 -159 -54 -418 -182 -530
-261 -176 -125 -313 -288 -351 -418 -22 -75 -16 -181 16 -246 39 -83 131 -164
251 -223 87 -43 276 -109 285 -100 1 2 -31 56 -71 121 -89 143 -110 199 -102
274 15 144 180 366 364 491 306 207 829 302 1196 217 268 -62 474 -213 524
-384 58 -200 -98 -436 -382 -579 -143 -71 -247 -91 -535 -102 -248 -9 -295
-18 -376 -73 -100 -66 -138 -167 -116 -299 24 -139 131 -311 255 -409 69 -55
162 -99 196 -93 23 5 579 -47 671 -62 34 -5 32 -3 -31 43 -123 91 -247 131
-363 118 -34 -4 -112 -20 -175 -36 -63 -16 -117 -27 -119 -25 -5 6 -162 679
-159 682 4 4 216 -24 337 -44 176 -31 228 -34 320 -23 151 19 247 49 335 103
497 307 689 717 508 1083 -102 207 -284 341 -538 395 -82 17 -143 22 -335 25
-129 2 -275 0 -325 -6z"/>
<path fill="#87480E" d="M1753 2497 c-84 -34 -153 -67 -153 -73 0 -20 38 -99 69 -141 74 -102
187 -98 241 8 39 76 47 270 11 268 -9 0 -85 -29 -168 -62z"/>
<path fill="#87480E" d="M1305 2370 c-36 -71 -65 -133 -65 -138 0 -4 63 -24 140 -44 l140 -36
0 174 0 174 -75 0 -75 0 -65 -130z"/>
<path fill="#87480E" d="M2190 2361 c0 -20 93 -122 133 -145 73 -43 122 -55 273 -66 141 -11
203 -24 355 -78 131 -47 188 -90 322 -248 164 -192 302 -301 508 -405 68 -34
100 -55 105 -71 3 -12 6 -61 6 -108 -1 -108 -34 -228 -102 -368 -121 -250
-326 -469 -540 -574 -121 -60 -177 -69 -432 -75 l-227 -5 56 -49 c315 -275
786 -195 1179 200 270 272 394 562 381 891 -6 154 -31 259 -96 395 -143 300
-434 534 -836 672 l-110 38 -487 3 c-302 2 -488 -1 -488 -7z"/>
<path fill="#87480E" d="M1634 2083 c43 -112 112 -253 122 -251 7 2 73 57 146 123 l133 120
-160 12 c-236 17 -248 16 -241 -4z"/>
<path fill="#87480E" d="M1270 2047 c-542 -190 -1005 -682 -1116 -1189 -23 -105 -23 -302 0
-403 18 -78 69 -222 85 -238 17 -17 34 93 41 248 5 149 8 165 35 225 37 82
146 229 254 342 94 99 204 189 371 304 204 140 317 270 385 444 26 66 75 250
75 281 0 26 -20 24 -130 -14z"/>
<path fill="#87480E" d="M2672 1045 c-128 -28 -216 -88 -253 -171 -26 -57 -39 -157 -39 -297
l0 -118 99 75 c111 86 175 151 214 216 27 48 70 185 82 263 7 45 6 47 -16 46
-13 0 -52 -7 -87 -14z"/>
</g>
</svg>
